<?xml version="1.0" standalone="no"?><!DOCTYPE svg PUBLIC "-//W3C//DTD SVG 1.1//EN" "http://www.w3.org/Graphics/SVG/1.1/DTD/svg11.dtd"><svg t="1588331956011" class="icon" viewBox="0 0 1025 1024" version="1.1" xmlns="http://www.w3.org/2000/svg" p-id="44514" xmlns:xlink="http://www.w3.org/1999/xlink" width="128.125" height="128"><defs><style type="text/css"></style></defs><path d="M877.975286 153.326213c-204.43495-204.43495-525.689872-204.43495-730.124822 0-197.133952 197.133952-197.133952 518.388873 0 722.823823 197.133952 197.132952 525.689872 197.132952 722.822824 0 204.43495-204.43495 204.43495-525.689872 7.301998-722.823823zM505.611377 759.330065c-36.505991 36.505991-73.011982 51.108988-124.12097 51.108987-43.807989 0-87.614979-14.602996-124.120969-51.109987s-51.109988-73.011982-51.109988-124.11997 14.602996-87.614979 51.109988-124.12197l87.614978-73.011982 51.107988 51.108988-80.312981 80.31298c-21.903995 14.602996-29.204993 43.807989-29.204993 65.711984 0 29.204993 7.299998 51.107988 29.204993 73.011982 21.902995 21.903995 43.806989 29.204993 73.011983 29.204993s51.108988-7.300998 73.012982-29.204993l80.31298-80.31398 43.807989 51.108987-80.31398 80.313981zM753.855316 708.220077l-36.506991 36.505991H702.745329l-7.300998-7.300998-416.171899-408.8699c-7.299998-7.300998-7.299998-14.601996 0-21.903995l36.506991-36.505991h7.299999c7.301998 0 7.301998 0 14.602996 7.300998L761.155315 700.920079l-7.300999 7.300998z m7.299999-197.133952l-80.312981 80.313981-51.108987-58.409986 80.31398-80.313981c21.903995-21.902995 29.204993-43.806989 29.204993-73.011982s-7.300998-51.108988-29.204993-73.012982c-14.601996-14.601996-43.806989-21.902995-65.710984-21.902995-29.204993 0-58.409986 7.299998-73.012982 29.204993l-80.31298 80.312981-51.109988-51.107988 80.31498-80.31398c36.505991-36.505991 73.011982-51.108988 124.11997-51.108988s87.615979 14.602996 124.12197 51.108988c65.710984 65.710984 65.710984 175.229957-7.300998 248.241939z" p-id="44515" fill="#E26374"></path></svg>