<?xml version="1.0" standalone="no"?><!DOCTYPE svg PUBLIC "-//W3C//DTD SVG 1.1//EN" "http://www.w3.org/Graphics/SVG/1.1/DTD/svg11.dtd"><svg t="1588331870979" class="icon" viewBox="0 0 1024 1024" version="1.1" xmlns="http://www.w3.org/2000/svg" p-id="42592" width="128" height="128" xmlns:xlink="http://www.w3.org/1999/xlink"><defs><style type="text/css"></style></defs><path d="M275.449445 393.788924a83.614055 83.614055 0 0 1 0 118.254163l-59.127082 59.127081a167.22811 167.22811 0 1 0 236.508327 236.508327L511.957772 748.551413a83.614055 83.614055 0 1 1 118.254163 118.254164l-59.127082 59.212402a334.45622 334.45622 0 0 1-473.101973-473.101974l59.127081-59.127081a83.614055 83.614055 0 0 1 118.339484 0zM393.703608 157.109956l59.127082-59.127082a334.45622 334.45622 0 0 1 473.101974 473.101974l-59.127082 59.127082A83.614055 83.614055 0 1 1 748.551419 512.043087l59.041761-59.127082a167.22811 167.22811 0 1 0-236.508327-236.508326L511.957772 275.53476a83.614055 83.614055 0 1 1-118.254164-118.254163zM334.491206 571.170168l236.508327-236.508326A83.614055 83.614055 0 1 1 689.424337 452.916005L452.83069 689.424332A83.614055 83.614055 0 1 1 334.491206 571.170168z" p-id="42593" fill="#91D9A7"></path></svg>