<?xml version="1.0" standalone="no"?><!DOCTYPE svg PUBLIC "-//W3C//DTD SVG 1.1//EN" "http://www.w3.org/Graphics/SVG/1.1/DTD/svg11.dtd"><svg t="1588581705216" class="icon" viewBox="0 0 1024 1024" version="1.1" xmlns="http://www.w3.org/2000/svg" p-id="2123" xmlns:xlink="http://www.w3.org/1999/xlink" width="128" height="128"><defs><style type="text/css"></style></defs><path d="M884.363636 604.253091a46.545455 46.545455 0 0 1 46.219637 41.146182l0.325818 5.399272V698.181818a232.727273 232.727273 0 0 1-222.626909 232.494546L698.181818 930.909091h-42.914909a46.545455 46.545455 0 0 1-5.399273-92.765091l5.399273-0.325818H698.181818a139.636364 139.636364 0 0 0 139.403637-131.444364L837.818182 698.181818v-47.383273a46.545455 46.545455 0 0 1 46.545454-46.545454z m-744.727272 1.070545a46.545455 46.545455 0 0 1 46.219636 41.146182l0.325818 5.399273V698.181818a139.636364 139.636364 0 0 0 131.444364 139.403637L325.818182 837.818182h46.266182a46.545455 46.545455 0 0 1 5.445818 92.765091L372.084364 930.909091H325.818182a232.727273 232.727273 0 0 1-232.494546-222.626909L93.090909 698.181818v-46.312727a46.545455 46.545455 0 0 1 46.545455-46.545455zM379.019636 93.090909a46.545455 46.545455 0 1 1 0 93.090909H325.818182a139.636364 139.636364 0 0 0-139.636364 139.636364v53.527273a46.545455 46.545455 0 1 1-93.090909 0V325.818182a232.727273 232.727273 0 0 1 232.727273-232.727273h53.201454zM698.181818 93.090909a232.727273 232.727273 0 0 1 232.494546 222.626909L930.909091 325.818182v44.171636a46.545455 46.545455 0 0 1-92.765091 5.399273L837.818182 370.036364V325.818182a139.636364 139.636364 0 0 0-131.444364-139.403637L698.181818 186.181818h-42.496a46.545455 46.545455 0 0 1-5.445818-92.765091L655.685818 93.090909H698.181818zM279.272727 558.545455h465.454546a46.545455 46.545455 0 0 0 0-93.09091H279.272727a46.545455 46.545455 0 0 0 0 93.09091z" p-id="2124" fill="#a0a1a2"></path></svg>