<?xml version="1.0" standalone="no"?><!DOCTYPE svg PUBLIC "-//W3C//DTD SVG 1.1//EN" "http://www.w3.org/Graphics/SVG/1.1/DTD/svg11.dtd"><svg t="1588334003432" class="icon" viewBox="0 0 1024 1024" version="1.1" xmlns="http://www.w3.org/2000/svg" p-id="45976" xmlns:xlink="http://www.w3.org/1999/xlink" width="128" height="128"><defs><style type="text/css"></style></defs><path d="M512 936.747c234.581 0 424.747-190.166 424.747-424.747S746.58 87.253 512 87.253 87.253 277.42 87.253 512 277.42 936.747 512 936.747z m0 64c-269.91 0-488.747-218.838-488.747-488.747C23.253 242.09 242.091 23.253 512 23.253c269.91 0 488.747 218.838 488.747 488.747 0 269.91-218.838 488.747-488.747 488.747z" p-id="45977" fill="#a0a1a2"></path><path d="M422.827 436.267v0.682a32 32 0 1 1-64-1.28 11.307 11.307 0 0 1-0.043-1.408c0-47.274 13.27-86.186 39.552-116.864 28.8-33.109 68.48-49.322 118.741-49.322 44.715 0 80.939 12.97 108.544 39.125 26.454 24.917 39.595 58.624 39.595 100.352 0 30.293-9.387 58.112-27.733 82.39-7.68 9.685-24.235 25.813-54.23 52.949-14.506 12.672-24.746 24.49-31.146 35.285-8.406 14.507-12.459 29.27-12.502 45.141l1.152 19.371a11.179 11.179 0 0 1-11.178 11.861H487.68a11.179 11.179 0 0 1-11.221-11.178V624c0-21.163 4.437-40.917 13.098-58.197 10.496-22.486 32.214-48.512 63.702-75.99 19.584-19.626 25.728-25.941 29.781-31.018 12.8-16.47 19.03-32.811 19.03-49.92 0-25.472-7.382-45.568-21.42-60.203-14.762-14.763-36.351-22.144-65.578-22.144-32.64 0-56.021 10.496-72.107 31.872-13.525 16.939-19.968 41.685-19.968 75.861a11.264 11.264 0 0 1-0.17 2.006zM512 763.648a32 32 0 1 1 0-64 32 32 0 0 1 0 64z" p-id="45978" fill="#a0a1a2"></path></svg>