<?xml version="1.0" standalone="no"?><!DOCTYPE svg PUBLIC "-//W3C//DTD SVG 1.1//EN" "http://www.w3.org/Graphics/SVG/1.1/DTD/svg11.dtd"><svg t="1588769635199" class="icon" viewBox="0 0 1024 1024" version="1.1" xmlns="http://www.w3.org/2000/svg" p-id="7574" xmlns:xlink="http://www.w3.org/1999/xlink" width="128" height="128"><defs><style type="text/css"></style></defs><path d="M511.636 0.769C229.053 0.769 0.02 229.799 0.02 512.383s229.032 511.616 511.615 511.616c282.584 0 511.616-229.033 511.616-511.616S794.22 0.769 511.636 0.769zM832.8 367.646L471.535 728.908c-10.521 10.522-29.578 15.32-45.36 14.616-15.9 0.703-35.191-4.094-45.713-14.616l-158.539-158.65c-19.76-19.76-19.76-51.911 0-71.79 19.76-19.754 51.912-19.754 71.79 0l132.345 132.465L761.13 295.859c19.76-19.76 51.91-19.76 71.787 0 19.755 19.877 19.755 52.026-0.117 71.787z m0 0" p-id="7575" fill="#1296db"></path></svg>